<svg width="32" height="32" viewBox="0 0 32 32" fill="none" xmlns="http://www.w3.org/2000/svg">
<path fill-rule="evenodd" clip-rule="evenodd" d="M4.02091 9.98421V6.98942C4.02091 5.35244 5.35271 4.02067 6.98966 4.02067H9.98446C10.3584 4.02067 10.6615 3.71752 10.6615 3.34359C10.6615 2.96965 10.3584 2.6665 9.98446 2.6665H6.98966C4.60602 2.6665 2.66675 4.60575 2.66675 6.98942V9.98421C2.66675 10.3581 2.9699 10.6613 3.34383 10.6613C3.71776 10.6613 4.02091 10.3581 4.02091 9.98421ZM9.98446 27.979C10.3584 27.979 10.6615 28.2822 10.6615 28.6561C10.6615 29.03 10.3584 29.3332 9.98446 29.3332H6.98966C4.60602 29.3332 2.66675 27.3939 2.66675 25.0103V22.0155C2.66675 21.6415 2.9699 21.3384 3.34383 21.3384C3.71776 21.3384 4.02091 21.6415 4.02091 22.0155V25.0103C4.02091 26.6472 5.35271 27.979 6.98966 27.979H9.98446ZM29.3334 22.0155V25.0103C29.3334 27.3939 27.3941 29.3332 25.0105 29.3332H22.0157C21.6418 29.3332 21.3386 29.03 21.3386 28.6561C21.3386 28.2822 21.6418 27.979 22.0157 27.979H25.0105C26.6475 27.979 27.9792 26.6472 27.9792 25.0103V22.0155C27.9792 21.6415 28.2824 21.3384 28.6563 21.3384C29.0303 21.3384 29.3334 21.6415 29.3334 22.0155ZM29.3334 6.98942V9.98421C29.3334 10.3581 29.0303 10.6613 28.6563 10.6613C28.2824 10.6613 27.9792 10.3581 27.9792 9.98421V6.98942C27.9792 5.35244 26.6475 4.02067 25.0105 4.02067H22.0157C21.6418 4.02067 21.3386 3.71752 21.3386 3.34359C21.3386 2.96965 21.6418 2.6665 22.0157 2.6665H25.0105C27.3941 2.6665 29.3334 4.60575 29.3334 6.98942ZM20.6727 22.3759C20.9579 22.1124 20.9755 21.6675 20.7121 21.3823C20.4485 21.097 20.0037 21.0794 19.7185 21.3428C18.7034 22.2804 17.3829 22.7968 16 22.7968C14.6172 22.7968 13.2966 22.2804 12.2816 21.3428C11.9963 21.0794 11.5515 21.097 11.288 21.3823C11.0245 21.6675 11.0421 22.1124 11.3274 22.3759C12.603 23.5541 14.2624 24.203 16 24.203C17.7376 24.203 19.397 23.5541 20.6727 22.3759ZM17.4063 12.7186V17.7186C17.4063 18.7094 16.6003 19.5155 15.6095 19.5155H15.0365C14.6482 19.5155 14.3334 19.2007 14.3334 18.8123C14.3334 18.424 14.6482 18.1092 15.0365 18.1092H15.6095C15.8248 18.1092 16.0001 17.934 16.0001 17.7186V12.7186C16.0001 12.3303 16.3149 12.0155 16.7032 12.0155C17.0915 12.0155 17.4063 12.3303 17.4063 12.7186ZM22.2501 14.6847V12.6795C22.2501 12.3128 21.9528 12.0155 21.586 12.0155C21.2193 12.0155 20.922 12.3128 20.922 12.6795V14.6847C20.922 15.0515 21.2193 15.3488 21.586 15.3488C21.9528 15.3488 22.2501 15.0515 22.2501 14.6847ZM9.90633 14.6847C9.90633 15.0515 10.2036 15.3488 10.5704 15.3488C10.9371 15.3488 11.2345 15.0515 11.2345 14.6847V12.6795C11.2345 12.3128 10.9371 12.0155 10.5704 12.0155C10.2036 12.0155 9.90633 12.3128 9.90633 12.6795V14.6847Z" fill="white"/>
</svg>
