<svg width="24" height="24" viewBox="0 0 24 24" fill="none" xmlns="http://www.w3.org/2000/svg">
<circle cx="12" cy="12" r="12" fill="#FFF9E7"/>
<path fill-rule="evenodd" clip-rule="evenodd" d="M11.4759 4.00126C11.6493 3.99006 11.824 3.98438 12 3.98438C12.176 3.98438 12.3507 3.99006 12.5241 4.00126C12.9116 4.0263 13.2054 4.36075 13.1804 4.74826C13.1553 5.13578 12.8209 5.42962 12.4334 5.40458C12.2902 5.39533 12.1457 5.39062 12 5.39062C11.8543 5.39062 11.7098 5.39533 11.5666 5.40458C11.1791 5.42962 10.8447 5.13578 10.8196 4.74826C10.7946 4.36075 11.0884 4.0263 11.4759 4.00126ZM9.39544 5.12869C9.56745 5.47684 9.42467 5.89851 9.07652 6.07053C8.81708 6.19871 8.56718 6.34347 8.32822 6.50345C8.00554 6.71949 7.56882 6.63303 7.35279 6.31034C7.13675 5.98765 7.22321 5.55094 7.5459 5.3349C7.83559 5.14096 8.13871 4.96535 8.4536 4.80977C8.80175 4.63775 9.22343 4.78054 9.39544 5.12869ZM14.6046 5.12869C14.7766 4.78054 15.1982 4.63775 15.5464 4.80977C15.8613 4.96535 16.1644 5.14096 16.4541 5.3349C16.7768 5.55094 16.8632 5.98765 16.6472 6.31034C16.4312 6.63303 15.9945 6.71949 15.6718 6.50345C15.4328 6.34347 15.1829 6.19871 14.9235 6.07053C14.5753 5.89851 14.4325 5.47684 14.6046 5.12869ZM17.6897 7.35279C18.0123 7.13675 18.4491 7.22321 18.6651 7.5459C18.859 7.83559 19.0347 8.13871 19.1902 8.4536C19.3622 8.80175 19.2195 9.22343 18.8713 9.39544C18.5232 9.56745 18.1015 9.42467 17.9295 9.07652C17.8013 8.81708 17.6565 8.56718 17.4965 8.32822C17.2805 8.00554 17.367 7.56882 17.6897 7.35279ZM6.31034 7.35279C6.63303 7.56882 6.71949 8.00554 6.50345 8.32822C6.34347 8.56718 6.19871 8.81708 6.07053 9.07652C5.89851 9.42467 5.47684 9.56745 5.12869 9.39544C4.78054 9.22343 4.63775 8.80175 4.80977 8.4536C4.96535 8.13871 5.14096 7.83559 5.3349 7.5459C5.55094 7.22321 5.98765 7.13675 6.31034 7.35279ZM4.74826 10.8196C5.13578 10.8447 5.42962 11.1791 5.40458 11.5666C5.39533 11.7098 5.39062 11.8543 5.39062 12C5.39062 12.1457 5.39533 12.2902 5.40458 12.4334C5.42962 12.8209 5.13578 13.1553 4.74826 13.1804C4.36075 13.2054 4.0263 12.9116 4.00126 12.5241C3.99006 12.3507 3.98438 12.176 3.98438 12C3.98438 11.824 3.99006 11.6493 4.00126 11.4759C4.0263 11.0884 4.36075 10.7946 4.74826 10.8196ZM19.2517 10.8196C19.6393 10.7946 19.9737 11.0884 19.9987 11.4759C20.0099 11.6493 20.0156 11.824 20.0156 12C20.0156 12.176 20.0099 12.3507 19.9987 12.5241C19.9737 12.9116 19.6393 13.2054 19.2517 13.1804C18.8642 13.1553 18.5704 12.8209 18.5954 12.4334C18.6047 12.2902 18.6094 12.1457 18.6094 12C18.6094 11.8543 18.6047 11.7098 18.5954 11.5666C18.5704 11.1791 18.8642 10.8447 19.2517 10.8196ZM5.12869 14.6046C5.47684 14.4325 5.89851 14.5753 6.07053 14.9235C6.19871 15.1829 6.34347 15.4328 6.50345 15.6718C6.71949 15.9945 6.63303 16.4312 6.31034 16.6472C5.98765 16.8632 5.55094 16.7768 5.3349 16.4541C5.14096 16.1644 4.96535 15.8613 4.80977 15.5464C4.63775 15.1982 4.78054 14.7766 5.12869 14.6046ZM18.8713 14.6046C19.2195 14.7766 19.3622 15.1982 19.1902 15.5464C19.0347 15.8613 18.859 16.1644 18.6651 16.4541C18.4491 16.7768 18.0123 16.8632 17.6897 16.6472C17.367 16.4312 17.2805 15.9945 17.4965 15.6718C17.6565 15.4328 17.8013 15.1829 17.9295 14.9235C18.1015 14.5753 18.5232 14.4325 18.8713 14.6046ZM7.35279 17.6897C7.56882 17.367 8.00554 17.2805 8.32822 17.4965C8.56718 17.6565 8.81708 17.8013 9.07652 17.9295C9.42467 18.1015 9.56745 18.5232 9.39544 18.8713C9.22343 19.2195 8.80175 19.3622 8.4536 19.1902C8.13871 19.0347 7.83559 18.859 7.5459 18.6651C7.22321 18.4491 7.13675 18.0123 7.35279 17.6897ZM16.6472 17.6897C16.8632 18.0123 16.7768 18.4491 16.4541 18.6651C16.1644 18.859 15.8613 19.0347 15.5464 19.1902C15.1982 19.3622 14.7766 19.2195 14.6046 18.8713C14.4325 18.5232 14.5753 18.1015 14.9235 17.9295C15.1829 17.8013 15.4328 17.6565 15.6718 17.4965C15.9945 17.2805 16.4312 17.367 16.6472 17.6897ZM10.8196 19.2517C10.8447 18.8642 11.1791 18.5704 11.5666 18.5954C11.7098 18.6047 11.8543 18.6094 12 18.6094C12.1457 18.6094 12.2902 18.6047 12.4334 18.5954C12.8209 18.5704 13.1553 18.8642 13.1804 19.2517C13.2054 19.6393 12.9116 19.9737 12.5241 19.9987C12.3507 20.0099 12.176 20.0156 12 20.0156C11.824 20.0156 11.6493 20.0099 11.4759 19.9987C11.0884 19.9737 10.7946 19.6393 10.8196 19.2517Z" fill="#FFBE0B"/>
<path fill-rule="evenodd" clip-rule="evenodd" d="M11.2969 4.6875C11.2969 4.29917 11.6117 3.98438 12 3.98438C16.4269 3.98438 20.0156 7.57309 20.0156 12C20.0156 16.4269 16.4269 20.0156 12 20.0156C7.57309 20.0156 3.98438 16.4269 3.98438 12C3.98438 11.6117 4.29917 11.2969 4.6875 11.2969C5.07583 11.2969 5.39062 11.6117 5.39062 12C5.39062 15.6503 8.34974 18.6094 12 18.6094C15.6503 18.6094 18.6094 15.6503 18.6094 12C18.6094 8.34974 15.6503 5.39062 12 5.39062C11.6117 5.39062 11.2969 5.07583 11.2969 4.6875Z" fill="#FFBE0B"/>
<path fill-rule="evenodd" clip-rule="evenodd" d="M12.5625 9.04688C12.9508 9.04688 13.2656 9.36167 13.2656 9.75V12.5625C13.2656 12.9508 12.9508 13.2656 12.5625 13.2656H10.3125C9.92417 13.2656 9.60938 12.9508 9.60938 12.5625C9.60938 12.1742 9.92417 11.8594 10.3125 11.8594H11.8594V9.75C11.8594 9.36167 12.1742 9.04688 12.5625 9.04688Z" fill="#FFBE0B"/>
</svg>
