<svg width="103" height="32" viewBox="0 0 103 32" fill="none" xmlns="http://www.w3.org/2000/svg">
<g id="xendit_white_logo copy">
<g id="xendit_icon_blue_red">
<mask id="mask0" mask-type="alpha" maskUnits="userSpaceOnUse" x="0" y="0" width="33" height="32">
<rect id="Mask" width="32.7613" height="32" fill="white"/>
</mask>
<g mask="url(#mask0)">
<g id="xendit_icon_blue_red_2">
<path id="Fill-1_1_" d="M19.1653 23.6754L22.1764 28.7624L23.6314 27.8824L24.1421 26.1977L20.9093 20.7295L19.1653 23.6754Z" fill="white"/>
<path id="Fill-2_1_" d="M9.41882 3.52932L7.99756 4.73403L11.8133 11.1764L13.5525 8.2352L10.0692 2.34814L9.41882 3.52932Z" fill="white"/>
<path id="Fill-3_1_" d="M12.695 19.2755L8.45532 26.4426L8.98528 28.3484L10.2861 29.2473L16.3999 18.9084L18.144 15.9579L24.9082 4.50374L23.7857 2.97903L23.4051 2.44727L21.7574 3.93903L12.695 19.2755Z" fill="white"/>
<path id="Fill-4_1_" d="M9.28397 1.01221L7.53991 3.9675H7.54473L2.19694 13.031L2.19212 13.0263L0.452881 15.9769L9.28397 30.9416L11.028 27.9957L3.93617 15.9816L11.028 3.9675H16.1012L17.8453 1.01221H9.28397Z" fill="white"/>
<path id="Fill-5_1_" d="M21.738 3.97172L28.825 15.9811L21.738 27.9905H16.6648L14.9255 30.9411H23.482L25.2261 27.9905L30.569 18.9317L32.3131 15.9858L30.5739 13.0164L25.2212 3.96701L23.4868 1.01172L21.738 3.97172Z" fill="white"/>
</g>
</g>
</g>
<g id="xendit_logotype">
<path id="Fill 1" fill-rule="evenodd" clip-rule="evenodd" d="M50.399 10.6147L47.1681 15.2173L43.9253 10.6147H41.3451L45.8497 16.7933L41.1138 23.265H43.6832L47.1674 18.3901L50.6181 23.265H53.1876L48.452 16.7933L52.9566 10.6147H50.399Z" fill="white"/>
<path id="Fill 2" fill-rule="evenodd" clip-rule="evenodd" d="M58.7438 12.2736C59.6867 12.2736 60.4195 12.5705 60.9218 13.1558C61.407 13.7213 61.6648 14.5427 61.688 15.5987H55.4359C55.5581 14.5814 55.8959 13.7715 56.4403 13.1888C57.0081 12.5817 57.7829 12.2736 58.7438 12.2736ZM58.7667 10.3896C57.0346 10.3896 55.6341 10.9996 54.6044 12.2018C53.5816 13.3964 53.063 15.0242 53.063 17.0408C53.063 19.0466 53.6226 20.6396 54.7263 21.7746C55.832 22.9128 57.3583 23.4898 59.2621 23.4898C60.1217 23.4898 60.8671 23.4261 61.4784 23.3007C62.089 23.1752 62.7446 22.9656 63.4273 22.678L63.2979 20.7189C61.996 21.2629 60.6616 21.5384 59.3312 21.5384C58.0948 21.5384 57.1257 21.1772 56.4512 20.4648C55.7989 19.7759 55.4379 18.758 55.3776 17.4373H64.0675V16.0959C64.0675 14.3986 63.5885 13.0098 62.6443 11.9682C61.6946 10.9205 60.39 10.3896 58.7667 10.3896Z" fill="white"/>
<path id="Fill 5" fill-rule="evenodd" clip-rule="evenodd" d="M71.4578 10.3901C70.5694 10.3901 69.751 10.5639 69.0253 10.9066C68.3832 11.2103 67.8603 11.6285 67.4669 12.1533V10.6151H65.3279V23.265H67.5674V16.6365C67.5674 15.0778 67.8643 13.9511 68.449 13.2871C69.0279 12.6298 69.9629 12.2964 71.2275 12.2964C72.1737 12.2964 72.8731 12.529 73.3072 12.9873C73.7443 13.45 73.966 14.1703 73.966 15.129V23.265H76.2056V15.0615C76.2056 13.4487 75.801 12.2532 75.0033 11.5089C74.2075 10.7665 73.0147 10.3901 71.4578 10.3901Z" fill="white"/>
<path id="Fill 7" fill-rule="evenodd" clip-rule="evenodd" d="M83.2037 21.6062C82.1053 21.6062 81.2974 21.2343 80.7335 20.4689C80.1658 19.698 79.8778 18.53 79.8778 16.9962C79.8778 15.4836 80.1684 14.3009 80.7417 13.4807C81.3095 12.6682 82.1072 12.2737 83.1808 12.2737C84.4267 12.2737 85.3424 12.6295 85.902 13.3316C86.4714 14.0455 86.76 15.2708 86.76 16.9735V17.3674C86.76 18.867 86.4763 19.9623 85.9167 20.6238C85.3647 21.2756 84.452 21.6062 83.2037 21.6062ZM86.7605 10.6259L86.807 11.4976L86.8578 12.0576C85.9241 10.9504 84.615 10.3898 82.9622 10.3898C81.2743 10.3898 79.937 10.9776 78.9872 12.1373C78.0463 13.2861 77.5693 14.9133 77.5693 16.9735C77.5693 19.0343 78.0447 20.6506 78.9823 21.777C79.9281 22.9136 81.2671 23.4899 82.9622 23.4899C84.6717 23.4899 85.9975 22.9034 86.9073 21.7459L87.1402 23.265H88.9997V6.27832H86.7602L86.7605 10.6259Z" fill="white"/>
<path id="Vector 1" d="M92.9328 6.27832H91.5797L90.7339 7.59031L91.5729 8.91123H92.9328L93.7719 7.59924L92.9328 6.27832Z" fill="white"/>
<path id="Fill 12" fill-rule="evenodd" clip-rule="evenodd" d="M91.0974 23.2647H93.337V10.6147H91.0974V23.2647Z" fill="white"/>
<path id="Fill 14" fill-rule="evenodd" clip-rule="evenodd" d="M102.253 21.4099C102.076 21.4604 101.831 21.5097 101.525 21.5574C101.22 21.6044 100.899 21.6288 100.571 21.6288C99.9852 21.6288 99.5393 21.4512 99.2081 21.086C98.8762 20.7209 98.7078 20.1811 98.7078 19.4825V12.3862H102.371V10.615H98.7078V6.27832H96.4683L96.4971 10.615H94.6602V12.3862H96.4683V19.5612C96.4683 22.168 97.7558 23.4899 100.295 23.4899C100.622 23.4899 100.997 23.4569 101.409 23.392C101.832 23.3254 102.146 23.2419 102.37 23.1366L102.253 21.4099Z" fill="white"/>
</g>
</g>
</svg>
